<svg xmlns="http://www.w3.org/2000/svg" width="296.591" height="164.901" viewBox="0 0 296.591 164.901"><g transform="translate(-736.249 -928.805)"><path d="M2017.334,993.065a.9.9,0,0,1-.255.1q-21.021.005-42.077,0a2.67,2.67,0,0,1-.084-.461c-.009-2.192-.006-4.385-.016-6.577a2.42,2.42,0,0,1,.375-1.257,4.842,4.842,0,0,1,2.57-2.181c1.174-.427,2.354-.84,3.532-1.254,1.2-.423,2.411-.833,3.613-1.26a8.673,8.673,0,0,0,3.375-2.2,2.2,2.2,0,0,0,.7-1.674c-.046-1.408,0-2.822-.1-4.225-.088-1.244-.29-2.483-.495-3.715-.256-1.541-.57-3.072-.853-4.609-.344-1.87-.689-3.739-1.02-5.611-.358-2.026-.733-4.049-1.04-6.083q-.437-2.9-.742-5.812a28.389,28.389,0,0,1-.181-5,17.456,17.456,0,0,1,1.224-5.781,10.448,10.448,0,0,1,5.291-5.618,11.566,11.566,0,0,1,4.617-1.039,12.57,12.57,0,0,1,4.9.818,9.937,9.937,0,0,1,4.713,3.845,13.2,13.2,0,0,1,1.964,4.979,20.816,20.816,0,0,1,.371,3.494c.021,1.093-.068,2.189-.142,3.281-.06.883-.16,1.764-.257,2.644-.111,1.009-.21,2.021-.367,3.024-.266,1.7-.571,3.389-.865,5.082q-.414,2.386-.841,4.77c-.4,2.2-.807,4.406-1.2,6.61-.187,1.05-.381,2.1-.511,3.16a33.829,33.829,0,0,0-.284,5.072,4.88,4.88,0,0,1,.016.626,2.227,2.227,0,0,0,.778,1.873,9.588,9.588,0,0,0,3.7,2.265c1.941.679,3.889,1.337,5.829,2.017.49.172.968.381,1.443.593a4.5,4.5,0,0,1,1.765,1.509,2.968,2.968,0,0,1,.617,1.818c-.011,2.166-.009,4.333-.014,6.5A1.878,1.878,0,0,1,2017.334,993.065ZM1999.2,937.777a2.682,2.682,0,0,0-.24-1.214,3.113,3.113,0,0,0-2.829-1.9,3.041,3.041,0,0,0-3.092,1.945,3.076,3.076,0,0,0-.192,1.823,3.29,3.29,0,0,0,2.862,2.49A3.157,3.157,0,0,0,1999.2,937.777Z" transform="translate(-1112.097)" fill="#3e3e3e"/><path d="M736.6,1592.582a7.2,7.2,0,0,1-.06-2.445,2.111,2.111,0,0,1,.827-.061q7.243-.005,14.487,0,53.875,0,107.75-.005a9.528,9.528,0,0,0,1.244-.1,3.1,3.1,0,0,1,1.006-.025,3.928,3.928,0,0,0,1.267-.015c.1-1,.032-1.961.046-2.919.014-.939,0-1.879,0-2.819q0-1.449,0-2.9v-2.9c0-.94,0-1.879,0-2.819,0-.96-.02-1.922.016-2.818.25-.271.5-.185.725-.185q3.8-.011,7.6-.007l32.732-.005h.981a2.486,2.486,0,0,1,.123.531c0,1.748-.023,3.5-.026,5.245q-.007,5.09,0,10.18c0,.441.035.882.054,1.318.1.052.167.114.233.114.858,0,1.714.115,2.569.115q39.153.014,78.306.009h46.373a4.8,4.8,0,0,1,.042,2.451,4.1,4.1,0,0,1-.516.071c-.6.009-1.2,0-1.8,0H738.421C737.824,1592.6,737.226,1592.588,736.6,1592.582ZM897.58,1578.7a1.429,1.429,0,0,0-1.2-.127,3.726,3.726,0,0,0-1.87.922c-.561.542-1.1,1.112-1.6,1.706a6.029,6.029,0,0,1-2,1.591,3.218,3.218,0,0,1-1.812.375c-2.285-.3-4.068-2.71-3.285-4.751a.947.947,0,0,0-.016-.358,1.573,1.573,0,0,0-.274-.04,1.931,1.931,0,0,0-1.141.46q-1.082.9-2.149,1.816c-.394.341-.759.716-1.154,1.057a6.528,6.528,0,0,1-2.293,1.306,3.685,3.685,0,0,1-1.921.186,3.538,3.538,0,0,1-2.771-4.018c.022-.146.019-.3.029-.47a2.659,2.659,0,0,0-1.147.355,10.833,10.833,0,0,0-1.964,1.273c-.866.625-1.726,1.261-2.608,1.862a5.758,5.758,0,0,1-2.387.915c-.2.032-.4.094-.608.143a2.232,2.232,0,0,0-.055.332q-.012,3.208-.014,6.416a1.525,1.525,0,0,0,.081.323h36.8a4.986,4.986,0,0,0,.547-.01,2.8,2.8,0,0,0,.407-.1.938.938,0,0,0,.055-.2q0-2.738,0-5.477a1.1,1.1,0,0,0-.18-.678c-.3,0-.584.016-.868,0a7.02,7.02,0,0,1-1.238-.138,4.056,4.056,0,0,1-3.165-3.2A14.667,14.667,0,0,1,897.58,1578.7Z" transform="translate(-0.197 -577.985)" fill="#3f4040"/><path d="M736.409,2100.625a6.567,6.567,0,0,1-.1-2.456,3.222,3.222,0,0,1,.5-.088c.574-.011,1.148,0,1.722,0h294.141a2.1,2.1,0,0,1,.115.454c.012.651.005,1.3.005,1.988a3.388,3.388,0,0,1-.458.106c-.208.017-.417.006-.626.006q-33.671,0-67.341,0-9,0-18.01.014-6.538,0-13.077,0-9.474,0-18.948,0-8.339,0-16.678-.013-9.24,0-18.479.012c-3.811,0-7.621-.008-11.432-.008-3.524,0-7.047.01-10.571.008q-8.73,0-17.461-.013c-3.863,0-7.726.013-11.589.014-3.889,0-7.778-.01-11.667-.011l-79.165-.008Z" transform="translate(0 -1049.803)" fill="#434242"/><path d="M2436.535,1077.331q-7.513,0-15.027,0a5.873,5.873,0,0,1-1-.1,1.367,1.367,0,0,1-1.1-1.338,4.989,4.989,0,0,1-.016-.547q0-4.031,0-8.061a2.663,2.663,0,0,1,.19-1.146,1.135,1.135,0,0,1,.735-.654,4.644,4.644,0,0,1,.92-.156c.363-.026.73-.008,1.1-.008q14.283,0,28.566,0a6.712,6.712,0,0,1,1.553.132,1.259,1.259,0,0,1,1.11,1.138,7.081,7.081,0,0,1,.085.772q.009,3.874,0,7.748a5.212,5.212,0,0,1-.1.928,1.4,1.4,0,0,1-1.352,1.283,5.7,5.7,0,0,1-.7.016Z" transform="translate(-1511.166 -122.554)" fill="#24c3ff"/><path d="M2735.412,1621.525q-7.514,0-15.027,0a5.073,5.073,0,0,1-1-.111,1.345,1.345,0,0,1-1.075-1.278,4.926,4.926,0,0,1-.023-.7q0-3.953,0-7.9a2.749,2.749,0,0,1,.169-1.15,1.159,1.159,0,0,1,.78-.71,5.56,5.56,0,0,1,.921-.15c.311-.025.626-.007.939-.007l28.723,0a6.208,6.208,0,0,1,1.553.135,1.251,1.251,0,0,1,1.076,1.082,6.636,6.636,0,0,1,.093.85q.01,3.874,0,7.748a6.59,6.59,0,0,1-.089.851,1.428,1.428,0,0,1-1.464,1.344,6,6,0,0,1-.626.008Z" transform="translate(-1779.526 -611.146)" fill="#24c3ff"/><path d="M2798.252,2437.049q-7.474,0-14.948,0a4.177,4.177,0,0,1-.928-.08,1.4,1.4,0,0,1-1.216-1.492c-.009-.156-.01-.313-.01-.469q0-3.991,0-7.983a2.782,2.782,0,0,1,.149-1.076,1.175,1.175,0,0,1,.823-.766,5.7,5.7,0,0,1,.922-.144c.337-.025.678-.007,1.017-.007q14.323,0,28.645.008a10.024,10.024,0,0,1,1.473.131,1.229,1.229,0,0,1,1.149,1.181c.026.257.075.515.075.773q.008,3.835,0,7.67a5.306,5.306,0,0,1-.095.928,1.415,1.415,0,0,1-1.405,1.317,6.964,6.964,0,0,1-.7.011Z" transform="translate(-1835.97 -1343.347)" fill="#24c3ff"/><path d="M2113.127,2432.461q-7.438,0-14.876,0a5.8,5.8,0,0,1-1.01-.082,1.342,1.342,0,0,1-1.172-1.192,3.747,3.747,0,0,1-.037-.624q0-4.071,0-8.142a4.224,4.224,0,0,1,.122-.925,1.119,1.119,0,0,1,.895-.883,5.583,5.583,0,0,1,.848-.126c.312-.022.626-.009.939-.009q14.328,0,28.656.011a9.444,9.444,0,0,1,1.555.129,1.193,1.193,0,0,1,1.135,1.188,6.173,6.173,0,0,1,.058.857q.005,3.758,0,7.516a6.817,6.817,0,0,1-.075,1.013,1.274,1.274,0,0,1-1.151,1.194,5.221,5.221,0,0,1-.932.076Q2120.6,2432.464,2113.127,2432.461Z" transform="translate(-1220.85 -1339.259)" fill="#3f3f3f"/><path d="M1432.51,2432.468q-7.438,0-14.876,0a5.779,5.779,0,0,1-1.01-.081,1.339,1.339,0,0,1-1.179-1.184,4.11,4.11,0,0,1-.04-.7q0-4.032,0-8.064a4.068,4.068,0,0,1,.1-.85,1.173,1.173,0,0,1,.987-.983,6.46,6.46,0,0,1,.771-.11c.338-.02.678-.009,1.018-.009q14.289,0,28.577.011a9.5,9.5,0,0,1,1.555.127,1.192,1.192,0,0,1,1.144,1.18,6.076,6.076,0,0,1,.059.857q.005,3.758,0,7.516a6.221,6.221,0,0,1-.086,1.09,1.263,1.263,0,0,1-1.13,1.127,6.751,6.751,0,0,1-.933.075Q1439.987,2432.472,1432.51,2432.468Z" transform="translate(-609.764 -1339.266)" fill="#3f3f3f"/><path d="M2798.213,2160.709h-14.876c-.235,0-.47.006-.7-.007a1.432,1.432,0,0,1-1.458-1.349,5.638,5.638,0,0,1-.024-.7q0-3.954.006-7.908a3.687,3.687,0,0,1,.082-.851,1.31,1.31,0,0,1,1.329-1.1c.286-.023.574-.023.861-.023h22.941q3.328,0,6.656,0a4.4,4.4,0,0,1,1.392.151,1.167,1.167,0,0,1,.886.98,6.214,6.214,0,0,1,.1.928q.011,3.759,0,7.517a7.057,7.057,0,0,1-.108,1.165,1.361,1.361,0,0,1-1.344,1.188c-.234.017-.47.009-.7.009Z" transform="translate(-1835.97 -1095.316)" fill="#24c3ff"/><path d="M2112.994,2156.111h-14.877c-.235,0-.47.006-.7-.007a1.433,1.433,0,0,1-1.461-1.346,5.634,5.634,0,0,1-.024-.7q0-3.954.006-7.908a3.7,3.7,0,0,1,.08-.852,1.312,1.312,0,0,1,1.327-1.1c.286-.023.573-.023.86-.023q11.47,0,22.941,0,3.328,0,6.655,0a4.436,4.436,0,0,1,1.392.15,1.166,1.166,0,0,1,.889.978,6.214,6.214,0,0,1,.1.928q.011,3.758,0,7.517a7.072,7.072,0,0,1-.107,1.165,1.361,1.361,0,0,1-1.342,1.191c-.234.017-.47.01-.7.01Z" transform="translate(-1220.758 -1091.187)" fill="#24c3ff"/><path d="M2786.047,1357.451h-14.955c-.235,0-.47.006-.7-.007a1.443,1.443,0,0,1-1.477-1.416c-.018-.181-.016-.365-.016-.547q0-4.033.007-8.065a4.121,4.121,0,0,1,.1-.847,1.257,1.257,0,0,1,1.217-1.028,8.714,8.714,0,0,1,.938-.031q11.51,0,23.02,0c2.192,0,4.385,0,6.577.005a4.725,4.725,0,0,1,1.317.125,1.2,1.2,0,0,1,.983,1.071,8.3,8.3,0,0,1,.093.929q.011,3.68,0,7.36a7.889,7.889,0,0,1-.107,1.243,1.355,1.355,0,0,1-1.334,1.2c-.26.019-.522.01-.782.01Z" transform="translate(-1824.967 -374.128)" fill="#24c3ff"/><path d="M1420.247,1352.8H1405.3c-.235,0-.471.008-.7-.014a1.457,1.457,0,0,1-1.422-1.4,4.059,4.059,0,0,1-.017-.469q0-4.07,0-8.14a4.556,4.556,0,0,1,.1-.849,1.225,1.225,0,0,1,1.141-1.016,7.774,7.774,0,0,1,1.094-.046q4.344,0,8.688,0l20.272,0c.365,0,.73.008,1.1.017a3.283,3.283,0,0,1,.468.034,1.346,1.346,0,0,1,1.31,1.471c.007.13,0,.261,0,.391q0,3.992,0,7.984a5.185,5.185,0,0,1-.044.78,1.37,1.37,0,0,1-1.307,1.234,7.724,7.724,0,0,1-.782.018Z" transform="translate(-598.766 -369.954)" fill="#3d3d3d"/><path d="M1432.491,2156.055h-14.95c-.235,0-.471.008-.7-.015a1.452,1.452,0,0,1-1.415-1.407,5.735,5.735,0,0,1-.019-.625c0-2.635,0-5.27.006-7.906a4.9,4.9,0,0,1,.106-.927,1.222,1.222,0,0,1,1.145-1.01,8.083,8.083,0,0,1,1.094-.045q4.735,0,9.471,0l19.49,0c.365,0,.73.008,1.1.018a3.247,3.247,0,0,1,.468.034,1.348,1.348,0,0,1,1.3,1.478c.01.182.005.365,0,.548q0,3.8,0,7.592c0,.261,0,.522-.021.782a1.436,1.436,0,0,1-1.574,1.474c-.182.007-.365,0-.548,0Z" transform="translate(-609.764 -1091.143)" fill="#3d3d3d"/><path d="M2970.081,1494.126h-15.025a3.309,3.309,0,0,1-1-.109,1.21,1.21,0,0,1-.892-.893,3.532,3.532,0,0,1-.136-.84q-.015-4.069,0-8.139a3.834,3.834,0,0,1,.13-.841,1.333,1.333,0,0,1,1.233-1.028,4.037,4.037,0,0,1,.625-.015h30.05a3.476,3.476,0,0,1,1.158.126,1.307,1.307,0,0,1,.928,1.14,3.885,3.885,0,0,1,.015.547q0,4.03,0,8.06a2.71,2.71,0,0,1-.123,1,1.581,1.581,0,0,1-1.463.988,5.113,5.113,0,0,1-.625,0Z" transform="translate(-1990.276 -496.904)" fill="#24c3ff"/><path d="M2278.742,2285.506q7.474,0,14.947,0a3.509,3.509,0,0,1,1.159.12,1.321,1.321,0,0,1,.953,1.2,2.779,2.779,0,0,1,.009.313q0,4.226,0,8.451a2.364,2.364,0,0,1-.064.619,1.571,1.571,0,0,1-1.5,1.155c-.181.016-.365,0-.547,0q-14.986,0-29.972,0a3.464,3.464,0,0,1-1.08-.128,1.164,1.164,0,0,1-.809-.782,3.23,3.23,0,0,1-.162-.915q-.018-4.109,0-8.217a3.457,3.457,0,0,1,.125-.764,1.345,1.345,0,0,1,1.3-1.05,6.465,6.465,0,0,1,.782-.012h14.869Z" transform="translate(-1369.559 -1218.081)" fill="#24c3ff"/><path d="M2982.334,2285.5q7.513,0,15.025,0a3.117,3.117,0,0,1,1.081.114,1.329,1.329,0,0,1,.987,1.258c.008.1.005.208.005.313q0,4.148,0,8.295c0,.078,0,.157,0,.235a1.558,1.558,0,0,1-1.537,1.645,3.131,3.131,0,0,1-.469.006q-15.064,0-30.128,0a3.286,3.286,0,0,1-1-.119,1.187,1.187,0,0,1-.852-.836,3.165,3.165,0,0,1-.148-.838q-.016-4.147,0-8.3a3.189,3.189,0,0,1,.135-.762,1.333,1.333,0,0,1,1.256-1,5.749,5.749,0,0,1,.782-.014h14.868Z" transform="translate(-2001.291 -1218.077)" fill="#24c3ff"/><path d="M1558.328,1482.288q7.477,0,14.954.005a5.461,5.461,0,0,1,1.157.129,1.214,1.214,0,0,1,.952,1.109,2.925,2.925,0,0,1,.022.469q0,4.11,0,8.221a3.742,3.742,0,0,1-.027.547,1.443,1.443,0,0,1-1.2,1.271,5.214,5.214,0,0,1-1.008.087q-6.342.008-12.683,0-8.534,0-17.068,0a6.293,6.293,0,0,1-1.009-.092,1.183,1.183,0,0,1-.989-.89,3.38,3.38,0,0,1-.14-.921q-.016-3.993,0-7.986a4.166,4.166,0,0,1,.115-.847,1.323,1.323,0,0,1,1.271-1.082,6.727,6.727,0,0,1,.782-.018h14.876Z" transform="translate(-722.778 -496.932)" fill="#3f3f3f"/><path d="M1570.589,2285.546q7.477,0,14.954.005a5.629,5.629,0,0,1,1.158.127,1.209,1.209,0,0,1,.958,1.1,3.946,3.946,0,0,1,.025.625q0,3.993,0,7.986a4.482,4.482,0,0,1-.027.625,1.439,1.439,0,0,1-1.193,1.278,5.115,5.115,0,0,1-1.008.088q-6.42.008-12.84,0-8.456,0-16.912,0a6.568,6.568,0,0,1-1.009-.09,1.191,1.191,0,0,1-1-.884,2.943,2.943,0,0,1-.141-.843q-.015-4.071,0-8.143a3.8,3.8,0,0,1,.113-.769,1.327,1.327,0,0,1,1.264-1.089,6.421,6.421,0,0,1,.782-.019h14.875Z" transform="translate(-733.794 -1218.12)" fill="#3f3f3f"/><path d="M1765.692,1065.4a3.453,3.453,0,0,1,.185,1.317,29.255,29.255,0,0,0,.294,3.338c.073.567.112,1.138.192,1.7.191,1.363.4,2.723.594,4.085.04.282.043.569.061.826a1.569,1.569,0,0,1-1.3.666,3.913,3.913,0,0,1-.547.007h-29.978a3.3,3.3,0,0,1-1.081-.116,1.331,1.331,0,0,1-.948-1.042,5.033,5.033,0,0,1-.112-1.006q-.011-3.835.005-7.67a5.1,5.1,0,0,1,.111-1.007,1.192,1.192,0,0,1,1.01-1.051,7.245,7.245,0,0,1,1.081-.121c1.748-.012,3.5-.005,5.244-.005q12.054,0,24.107,0A3.284,3.284,0,0,1,1765.692,1065.4Z" transform="translate(-894.953 -122.568)" fill="#24c3ff"/><path d="M2602.183,1219.268H2587.23c-.261,0-.523.008-.782-.013a1.249,1.249,0,0,1-1.16-.9,2.7,2.7,0,0,1-.154-.838c-.011-2.766-.008-5.532,0-8.3a2.008,2.008,0,0,1,.061-.461,1.39,1.39,0,0,1,1.586-1.277c.156,0,.313,0,.47,0h29.672c.339,0,.68-.009,1.017.022a1.3,1.3,0,0,1,1.331,1.427c.018,1.174.006,2.349.006,3.523q0,2.466,0,4.932a2.541,2.541,0,0,1-.128.922,1.408,1.408,0,0,1-1.224.95,5.36,5.36,0,0,1-.7.015Z" transform="translate(-1659.974 -250.199)" fill="#24c3ff"/><path d="M1570.872,1207.378q7.123,0,14.246,0a7.449,7.449,0,0,1,.937.041,1.3,1.3,0,0,1,1.177,1.087,5.224,5.224,0,0,1,.09.932c.013.7.008,1.407,0,2.111q-.015,2.817-.038,5.634a4.3,4.3,0,0,1-.052.7,1.276,1.276,0,0,1-1.037,1.133,5.421,5.421,0,0,1-1.082.116q-5.127.011-10.254,0-9.08,0-18.16,0a3.52,3.52,0,0,1-1.156-.156,1.23,1.23,0,0,1-.913-1.062,6.969,6.969,0,0,1-.064-.7q-.053-3.8-.1-7.592a6.838,6.838,0,0,1,.03-.937,1.371,1.371,0,0,1,1.338-1.286c.285-.027.573-.025.86-.025q7.084,0,14.168,0Z" transform="translate(-734.625 -250.111)" fill="#3e3e3e"/><path d="M2624.4,1494.006h-14.172c-.235,0-.471,0-.7-.015a1.42,1.42,0,0,1-1.44-1.521c-.022-1.279-.01-2.558-.032-3.836-.025-1.407-.075-2.814-.112-4.221a3.405,3.405,0,0,1,.01-.626c.175-1.077.547-1.387,1.557-1.537a3.755,3.755,0,0,1,.548-.009q14.25,0,28.5,0a7.211,7.211,0,0,1,1.084.086,1.408,1.408,0,0,1,1.173,1.372,4.008,4.008,0,0,1,.016.547q0,3.836,0,7.673a3.35,3.35,0,0,1-.125,1.08,1.329,1.329,0,0,1-1.191.975,9.341,9.341,0,0,1-1.094.035q-7.008,0-14.016,0Z" transform="translate(-1680.445 -496.885)" fill="#24c3ff"/><path d="M2636.7,2297.27h-14.25c-.26,0-.523,0-.782-.021a1.438,1.438,0,0,1-1.354-1.45c.013-.6.008-1.2,0-1.8-.041-2.06-.09-4.119-.134-6.179a4.2,4.2,0,0,1,.012-.782c.169-1,.483-1.376,1.568-1.524a4.1,4.1,0,0,1,.548-.008q14.25,0,28.5,0a4.72,4.72,0,0,1,1.082.1,1.4,1.4,0,0,1,1.164,1.376c.015.155.013.313.013.469q0,3.915,0,7.83a3.071,3.071,0,0,1-.129,1,1.328,1.328,0,0,1-1.2.964,10.1,10.1,0,0,1-1.095.034q-6.968,0-13.937,0Z" transform="translate(-1691.436 -1218.078)" fill="#24c3ff"/><path d="M1933.116,2297.267q-7.084,0-14.168,0a3.38,3.38,0,0,1-1.158-.124,1.349,1.349,0,0,1-.95-1.214,3.1,3.1,0,0,1-.009-.312q-.068-3.639-.135-7.277c-.006-.339-.025-.68,0-1.017a3.54,3.54,0,0,1,.151-.84,1.176,1.176,0,0,1,.86-.832,4.349,4.349,0,0,1,.766-.127c.364-.021.73,0,1.1,0q13.855,0,27.71,0a5.771,5.771,0,0,1,.936.039,1.458,1.458,0,0,1,1.33,1.414,3.946,3.946,0,0,1,.015.469c0,2.609,0,5.218-.006,7.828a4.613,4.613,0,0,1-.119.924,1.3,1.3,0,0,1-1.212,1.049,6.7,6.7,0,0,1-.937.032q-7.084,0-14.168,0Z" transform="translate(-1059.827 -1218.088)" fill="#3e3d3d"/><path d="M1224.933,2297.267h-14.247a3.262,3.262,0,0,1-1.157-.133,1.346,1.346,0,0,1-.921-1.154,2.349,2.349,0,0,1-.013-.312q-.071-3.834-.14-7.668a5.684,5.684,0,0,1,0-.7,3.817,3.817,0,0,1,.16-.839,1.179,1.179,0,0,1,.877-.815,4.71,4.71,0,0,1,.767-.121c.364-.02.73,0,1.1,0h27.632a6.625,6.625,0,0,1,.938.028,1.48,1.48,0,0,1,1.383,1.45,5.248,5.248,0,0,1,.013.548c0,2.531,0,5.062-.005,7.593a5.515,5.515,0,0,1-.107,1,1.312,1.312,0,0,1-1.251,1.1,7.456,7.456,0,0,1-.938.029q-7.045,0-14.09,0Z" transform="translate(-423.952 -1218.088)" fill="#3e3d3d"/><path d="M1212.782,1494.008q-7.162,0-14.325,0a4.186,4.186,0,0,1-1.006-.088,1.324,1.324,0,0,1-1.087-1.346c0-.078,0-.156,0-.235q-.066-3.56-.132-7.12c-.007-.391-.028-.784,0-1.174a3.218,3.218,0,0,1,.157-.839,1.179,1.179,0,0,1,.874-.818,4.589,4.589,0,0,1,.767-.122c.364-.021.73,0,1.1,0h27.632a6.68,6.68,0,0,1,.938.027,1.5,1.5,0,0,1,1.394,1.525c.012.156.007.313.007.469q0,3.8,0,7.593a4.228,4.228,0,0,1-.086.929,1.368,1.368,0,0,1-1.423,1.2c-.286.021-.574.013-.861.013h-13.933Z" transform="translate(-412.97 -496.9)" fill="#3e3d3d"/><path d="M1428.885,1065.367q6.34,0,12.681.006a7.382,7.382,0,0,1,1.317.128,1.162,1.162,0,0,1,.952.928,4.713,4.713,0,0,1,.136,1.08c0,1.07-.044,2.139-.043,3.209,0,1.513.038,3.026.042,4.54a4.237,4.237,0,0,1-.118,1,1.285,1.285,0,0,1-1.011.983,5.18,5.18,0,0,1-1.16.126c-4.2,0-8.4-.009-12.6-.011q-6.419,0-12.838,0a10.408,10.408,0,0,1-1.246-.087,1.238,1.238,0,0,1-1.13-1.03,3.522,3.522,0,0,1-.093-.772q-.009-4.11,0-8.219c0-.1,0-.209.01-.313a1.474,1.474,0,0,1,1.334-1.494,4.965,4.965,0,0,1,.933-.062q6.419-.006,12.838,0Z" transform="translate(-608.296 -122.609)" fill="#3f3e3e"/><path d="M1791.221,2420.485q6.34,0,12.68,0a7.839,7.839,0,0,1,1.241.112,1.282,1.282,0,0,1,1.091,1.169,4.565,4.565,0,0,1,.047.78c0,2.661-.018,5.322.011,7.983.012,1.129-.427,1.887-1.894,1.956-.1,0-.209,0-.313,0q-12.719-.009-25.438-.022a10.441,10.441,0,0,1-1.324-.088,1.234,1.234,0,0,1-1.138-1.111,6.216,6.216,0,0,1-.1-1.008q-.011-3.8,0-7.592a5.9,5.9,0,0,1,.093-.931,1.287,1.287,0,0,1,1.048-1.126,5.434,5.434,0,0,1,1.16-.119c3.261-.008,6.523,0,9.784,0h3.053Z" transform="translate(-933.587 -1339.272)" fill="#3f3f3f"/><path d="M2476.4,2425.083q6.379,0,12.758.005a7.373,7.373,0,0,1,1.24.12,1.266,1.266,0,0,1,1.051,1.119,4.061,4.061,0,0,1,.053.779q.005,4.031,0,8.062a3.4,3.4,0,0,1-.026.547,1.411,1.411,0,0,1-1.123,1.254,4.838,4.838,0,0,1-1.083.116q-11.193,0-22.385-.013c-1.122,0-2.244.008-3.365-.005a6.6,6.6,0,0,1-1.087-.1,1.192,1.192,0,0,1-1-.974,5.1,5.1,0,0,1-.125-1.083q-.013-3.835,0-7.671a5.252,5.252,0,0,1,.1-.93,1.276,1.276,0,0,1,1-1.081,4.7,4.7,0,0,1,1.08-.13c2.974-.01,5.948,0,8.923,0h3.991Z" transform="translate(-1548.799 -1343.401)" fill="#3f3f3f"/><path d="M2405.526,1621.391c-.092-.682-.086-11.165.015-11.836.244-.009.5-.026.753-.026h25.2c.574,0,1.149-.017,1.722.007a6.725,6.725,0,0,1,1.159.145,1.189,1.189,0,0,1,1.026,1.035,6.182,6.182,0,0,1,.1.849q.01,3.874,0,7.749a5.216,5.216,0,0,1-.1.928,1.4,1.4,0,0,1-1.348,1.288,4.89,4.89,0,0,1-.625.016q-13.5,0-27,0C2406.121,1621.544,2405.794,1621.625,2405.526,1621.391Z" transform="translate(-1498.666 -611.169)" fill="#24c3ff"/><path d="M2476.159,2160.706H2463.4c-.313,0-.628.012-.938-.02a1.3,1.3,0,0,1-1.3-1.22,7.168,7.168,0,0,1-.113-1.161q-.014-3.679,0-7.357a5.281,5.281,0,0,1,.117-1,1.4,1.4,0,0,1,1.229-1.143,4.213,4.213,0,0,1,.78-.037q12.992,0,25.985,0a7.008,7.008,0,0,1,.781.03,1.4,1.4,0,0,1,1.293,1.252,6.464,6.464,0,0,1,.036.86q0,3.913,0,7.826c0,.183,0,.366-.011.548a1.488,1.488,0,0,1-1.408,1.416c-.259.024-.521.02-.782.02h-12.914Z" transform="translate(-1548.57 -1095.313)" fill="#24c3ff"/><path d="M2463.95,1345.5q6.379,0,12.757,0a8.83,8.83,0,0,1,1.016.036,1.391,1.391,0,0,1,1.25,1.209,5.1,5.1,0,0,1,.04.781c0,2.687-.029,5.375.015,8.061a1.67,1.67,0,0,1-1.865,1.873c-1.069-.036-2.139-.019-3.208-.019h-22.541c-.365,0-.732.01-1.1-.012a1.333,1.333,0,0,1-1.421-1.267,6.652,6.652,0,0,1-.108-1.083q-.013-3.679,0-7.357a4.933,4.933,0,0,1,.112-1,1.428,1.428,0,0,1,1.351-1.195c.285-.027.573-.024.86-.024q6.417,0,12.836,0Z" transform="translate(-1537.563 -374.118)" fill="#24c3ff"/><path d="M1791.306,2144.079q6.22,0,12.441,0c.391,0,.784,0,1.172.038a1.37,1.37,0,0,1,1.314,1.227,4.719,4.719,0,0,1,.047.78q0,3.99,0,7.98c0,.1,0,.209,0,.313a1.535,1.535,0,0,1-1.5,1.593,6.816,6.816,0,0,1-.7.018q-12.754,0-25.508-.011a10,10,0,0,1-1.016-.022,1.363,1.363,0,0,1-1.388-1.319,5.814,5.814,0,0,1-.084-.931q-.008-3.717,0-7.433a5.466,5.466,0,0,1,.1-1.009,1.388,1.388,0,0,1,1.277-1.182,8.58,8.58,0,0,1,1.015-.036q6.416,0,12.832,0Z" transform="translate(-933.589 -1091.107)" fill="#3e3e3e"/><path d="M1098.366,1340.82q6.259,0,12.519,0a11.13,11.13,0,0,1,1.172.041,1.355,1.355,0,0,1,1.276,1.175,4.728,4.728,0,0,1,.056.857q.005,3.99,0,7.981c0,1.3-.559,1.874-1.841,1.892-.886.013-1.773-.009-2.66-.009h-23.16a9.959,9.959,0,0,1-1.016-.02,1.383,1.383,0,0,1-1.444-1.35,8.644,8.644,0,0,1-.078-.932q-.008-3.678,0-7.355a5.786,5.786,0,0,1,.1-1.086,1.374,1.374,0,0,1,1.222-1.148,7.518,7.518,0,0,1,1.015-.042q6.416,0,12.832,0Z" transform="translate(-311.491 -369.919)" fill="#3e3e3e"/><path d="M1110.6,2144.079q6.259,0,12.519,0c.365,0,.731,0,1.094.03a1.405,1.405,0,0,1,1.423,1.379,6.883,6.883,0,0,1,.027.781q0,3.873,0,7.746c0,.157,0,.314-.006.469a1.517,1.517,0,0,1-1.406,1.516,5.068,5.068,0,0,1-.7.027q-12.91,0-25.82-.013a5.953,5.953,0,0,1-1.012-.057,1.3,1.3,0,0,1-1.159-1.194,7.189,7.189,0,0,1-.092-.931q-.009-3.8,0-7.59a4.987,4.987,0,0,1,.093-.931,1.391,1.391,0,0,1,1.269-1.191,8.378,8.378,0,0,1,1.015-.037q6.377,0,12.754,0Z" transform="translate(-322.51 -1091.108)" fill="#3e3e3e"/><path d="M1665.057,1627.119a1.164,1.164,0,0,1-.332-.847c-.014-.391-.027-.782-.027-1.174q0-3.6.009-7.2a7.475,7.475,0,0,1,.045-.937,1.2,1.2,0,0,1,1.023-1.125,5.063,5.063,0,0,1,1.005-.118c1.017-.015,2.035-.005,3.053-.005l24.186,0c.282,0,.564.013.785.018a.857.857,0,0,1,.112.1.147.147,0,0,1,.019.074q0,5.085,0,10.187l-1.531,1.024Z" transform="translate(-833.589 -616.722)" fill="#3e3e3e"/><path d="M1345.1,1627.106a2.456,2.456,0,0,1-.341-1.446q0-2.779,0-5.559c0-.809,0-1.618.007-2.427a3.128,3.128,0,0,1,.056-.7,1.379,1.379,0,0,1,1.136-1.148,5.924,5.924,0,0,1,1.006-.1c2.349-.008,4.7,0,7.046,0q9.238,0,18.477,0a8.194,8.194,0,0,1,1.319.113,1.2,1.2,0,0,1,1.039,1.027,5.5,5.5,0,0,1,.119,1.082c-.012,1.3-.075,2.608-.075,3.912,0,1.278.057,2.556.079,3.834a1.969,1.969,0,0,1-.382,1.392C1373.96,1627.157,1346.429,1627.184,1345.1,1627.106Z" transform="translate(-546.335 -616.73)" fill="#3e3e3e"/><path d="M1794.023,1348.9c-.3.109-.521.188-.74.264-1.742.615-3.48,1.245-5.23,1.837a6.533,6.533,0,0,0-2.588,1.556,3.249,3.249,0,0,1-.27.215h-.761l-18.168.005c-.287,0-.575.008-.861-.014a1.4,1.4,0,0,1-1.508-1.377c-.021-.259-.072-.518-.072-.776q-.007-3.8,0-7.6a5.41,5.41,0,0,1,.09-.932,1.4,1.4,0,0,1,1.261-1.2,5.79,5.79,0,0,1,.781-.037q12.921,0,25.843,0a7.925,7.925,0,0,1,.86.036,1.388,1.388,0,0,1,1.315,1.232,2.656,2.656,0,0,1,.04.468C1794.023,1344.66,1794.023,1346.747,1794.023,1348.9Z" transform="translate(-922.585 -369.934)" fill="#3e3e3e"/><path d="M2273.8,1219.145a1.489,1.489,0,0,1-.03-.314q1.029-5.673,2.062-11.335c.247-.193.518-.112.769-.113q6.382-.008,12.763-.005h11.51c.287,0,.575-.005.861.012a1.445,1.445,0,0,1,1.46,1.353,3.85,3.85,0,0,1,.021.547q0,3.876,0,7.752a3.3,3.3,0,0,1-.137,1.079,1.314,1.314,0,0,1-.9.9,3.192,3.192,0,0,1-1,.13H2296.4l-21.69,0Z" transform="translate(-1380.424 -250.101)" fill="#24c3ff"/><path d="M2582.182,1828.606h4.157q2.511,3.413,5.042,6.85c1.661,2.253,3.308,4.518,4.982,6.762l.144-.067v-8.109q0-1.33,0-2.661c0-.907-.008-1.814.007-2.71a30.308,30.308,0,0,1,4.117-.053c.173.225.091.495.091.744q.008,5.752,0,11.5,0,4.618,0,9.235c0,.254-.019.508-.028.736-.1.043-.141.082-.187.082-1.3,0-2.607,0-3.958,0-.113-.146-.247-.3-.361-.469q-3.2-4.73-6.387-9.463-1.487-2.2-2.975-4.407c-.111-.164-.181-.375-.466-.465-.023.519-.008,1-.011,1.483s0,.991,0,1.487v11.752a4.223,4.223,0,0,1-1.411.09c-.443.019-.887.008-1.33,0-.465-.006-.931.026-1.342-.018a.814.814,0,0,1-.1-.1.164.164,0,0,1-.018-.075q-.008-10.917-.013-21.834A2.3,2.3,0,0,1,2582.182,1828.606Z" transform="translate(-1657.287 -807.839)" fill="#444"/><path d="M1187.639,1841.942c.411.552.776,1.053,1.152,1.546q2.583,3.389,5.169,6.775a3.008,3.008,0,0,1,.3.455.807.807,0,0,1,.029.289,43.626,43.626,0,0,1-4.98.031l-6.5-8.67h-3.92c-.2.2-.118.448-.118.67-.006,2.4,0,4.8-.005,7.2,0,.256-.016.512-.024.757a26.691,26.691,0,0,1-4.136.046c-.019-.186-.056-.383-.056-.58q-.007-2.622,0-5.244,0-7.787,0-15.576c0-.281.016-.561.026-.892.221-.008.4-.02.573-.02,3.392,0,6.783-.01,10.175.007a9.531,9.531,0,0,1,4.519,1.045,6.019,6.019,0,0,1,3.358,5.427,8.173,8.173,0,0,1-.139,1.943,5.414,5.414,0,0,1-2.754,3.791,8.609,8.609,0,0,1-1.953.776C1188.14,1841.78,1187.926,1841.853,1187.639,1841.942Zm-8.787-3.378h.589c1.822,0,3.645.011,5.467-.007a9.611,9.611,0,0,0,1.7-.152,2.7,2.7,0,0,0,2.252-1.8,3.653,3.653,0,0,0,.122-1.156,2.53,2.53,0,0,0-1.788-2.477,5.868,5.868,0,0,0-1.913-.317q-3.007-.005-6.014,0c-.149,0-.3.026-.437.04C1178.742,1833.45,1178.75,1837.876,1178.852,1838.565Z" transform="translate(-393.519 -807.975)" fill="#24c3ff"/><path d="M2377.621,1837.848c0,1.251,0,2.4,0,3.543,0,.1-.018.2-.032.346-1.348.06-2.672.02-4,.027s-2.662,0-3.993,0-2.65-.011-3.965.009a39.914,39.914,0,0,0-.062,4.9c.222.184.493.1.742.1q5.442.008,10.884,0h.813a11.639,11.639,0,0,1,.065,2.038c.015.677,0,1.355,0,2.012-.262.211-.534.127-.784.127q-7.6.008-15.191,0h-.666a2.884,2.884,0,0,1-.081-.455c-.008-.652,0-1.3,0-1.958v-19.794c.209-.225.458-.139.681-.139q4.933-.009,9.866,0h6.035a1.009,1.009,0,0,1,.111.115.154.154,0,0,1,.019.073c0,1.252,0,2.5,0,3.767-.219.208-.493.116-.74.116q-5.442.009-10.885,0h-.808a1.314,1.314,0,0,0-.079.3q-.005,2.31,0,4.62a.832.832,0,0,0,.042.171,1.453,1.453,0,0,0,.746.066q5.207.006,10.415,0Z" transform="translate(-1459.064 -807.86)" fill="#454444"/><path d="M3064.3,1851c-.809.1-15.915.089-16.565-.009a1.7,1.7,0,0,1-.046-.285c0-7.3,0-14.6,0-21.859a1.229,1.229,0,0,1,.118-.1.161.161,0,0,1,.072-.021l15.893-.011h.511a10.945,10.945,0,0,1,.067,2.025c.016.65,0,1.3,0,1.941a1.266,1.266,0,0,1-.788.1q-5.4.007-10.8,0c-.282,0-.563.013-.831.019a33.933,33.933,0,0,0-.069,5.056c.22.167.49.085.738.086q5.246.008,10.491,0h.758a21.43,21.43,0,0,1,.013,3.883c-.8.068-1.6.024-2.4.032-.783.008-1.566,0-2.349,0h-2.427q-1.175,0-2.349,0c-.8,0-1.608,0-2.4.007a29.907,29.907,0,0,0-.081,4.9c.215.188.487.1.734.1q5.442.009,10.883,0h.761A20.291,20.291,0,0,1,3064.3,1851Z" transform="translate(-2075.273 -807.967)" fill="#444343"/><path d="M1399.458,1829.025h16.527a6,6,0,0,1,.054,1.318c.012.443,0,.887,0,1.331s0,.877,0,1.369c-1.091.059-2.128.022-3.164.028-1.018.007-2.036,0-3.053,0h-6.187a1.209,1.209,0,0,0-.111.326q-.007,2.31,0,4.619c0,.046.038.092.08.188.959.067,1.945.021,2.929.029,1.018.008,2.036,0,3.053,0h5.946a1.764,1.764,0,0,1,.109.337,31.106,31.106,0,0,1-.073,3.54c-.793.081-1.6.028-2.4.037-.783.01-1.566,0-2.349,0h-2.427c-.783,0-1.566,0-2.349,0-.8.005-1.61-.025-2.432.023a5.38,5.38,0,0,0-.1,1.65c-.02.547-.009,1.1,0,1.644s-.027,1.085.026,1.653c.876.087,1.707.03,2.536.04.809.01,1.618,0,2.427,0h7.413a19.668,19.668,0,0,1,.08,4.125,3.937,3.937,0,0,1-.5.062q-7.752.005-15.5,0c-.176,0-.353-.018-.563-.029-.015-.193-.035-.343-.038-.494C1399.3,1845.318,1399.343,1829.905,1399.458,1829.025Z" transform="translate(-595.342 -808.243)" fill="#24c3ff"/><path d="M1853.909,1828.633h4.076a1.208,1.208,0,0,1,.1.768q.007,5.126,0,10.252,0,5.2,0,10.409c0,.28-.017.561-.026.829a28.117,28.117,0,0,1-4.146.01,12.682,12.682,0,0,1-.027-1.451c-.008-.5,0-.991,0-1.487v-5.9c-.067-.056-.085-.075-.107-.089a.144.144,0,0,0-.067-.032q-5.243-.008-10.486-.011a1.559,1.559,0,0,0-.275.059,14.086,14.086,0,0,0-.025,1.462c-.007.5,0,.991,0,1.487v5.925a22.468,22.468,0,0,1-4.138.075,2.487,2.487,0,0,1-.076-.422c-.01-.521,0-1.043,0-1.565q0-9.7,0-19.409c0-.282.014-.564.021-.835a25.212,25.212,0,0,1,4.087-.061c.186.191.105.438.106.66q.009,3.913,0,7.826v.817a2.59,2.59,0,0,0,.4.067q5.087,0,10.174,0c.1,0,.2-.018.351-.033.015-.241.04-.467.04-.693q0-3.913,0-7.826C1853.886,1829.209,1853.9,1828.953,1853.909,1828.633Z" transform="translate(-989.814 -807.858)" fill="#24c3ff"/><path d="M3271.468,1825.585c-1.109.571-2.182,1.15-3.318,1.709-.083-.112-.142-.2-.208-.277a6.233,6.233,0,0,0-4.375-2.144,7.046,7.046,0,0,0-3.167.313,5.235,5.235,0,0,0-1.046.516,2.431,2.431,0,0,0-1.048,1.5,1.992,1.992,0,0,0,.778,2.208,4.714,4.714,0,0,0,1.94.788c.972.183,1.951.331,2.931.47a18.5,18.5,0,0,1,3.945.928,8.253,8.253,0,0,1,1.8.922,5.37,5.37,0,0,1,2.283,3.338,8,8,0,0,1,.046,3.34,6.065,6.065,0,0,1-3.129,4.185,10.874,10.874,0,0,1-3.685,1.228,16.557,16.557,0,0,1-3.747.132,11.6,11.6,0,0,1-4.378-1.055,7.9,7.9,0,0,1-3.892-4.111.937.937,0,0,1-.042-.217,22.463,22.463,0,0,1,3.39-1.807,1.31,1.31,0,0,1,.184.23,5.472,5.472,0,0,0,3.544,2.863,9.114,9.114,0,0,0,5.1.044,3.878,3.878,0,0,0,1.768-.959,2.7,2.7,0,0,0,.774-2.717,2.413,2.413,0,0,0-.973-1.375,5.248,5.248,0,0,0-1.918-.846,20.45,20.45,0,0,0-2.075-.366,19.17,19.17,0,0,1-5.3-1.256,6.114,6.114,0,0,1-2.564-1.994,4.992,4.992,0,0,1-.885-2.151,5.934,5.934,0,0,1,1.29-5.2,7.137,7.137,0,0,1,2.918-1.908,12.672,12.672,0,0,1,5.923-.692,13.86,13.86,0,0,1,2.151.382,8.358,8.358,0,0,1,3.3,1.719A6.433,6.433,0,0,1,3271.468,1825.585Z" transform="translate(-2259.754 -801.162)" fill="#444"/><path d="M1623.629,1825.6c-1.04.616-2.112,1.135-3.2,1.693a3.358,3.358,0,0,1-.293-.271,5.943,5.943,0,0,0-3.084-1.888,7.69,7.69,0,0,0-4.389.062,5.038,5.038,0,0,0-.922.418,2.5,2.5,0,0,0-1.3,1.943,1.917,1.917,0,0,0,.8,1.845,4.383,4.383,0,0,0,1.7.756c.682.161,1.376.279,2.071.379a23.181,23.181,0,0,1,5.1,1.086,7.365,7.365,0,0,1,2.641,1.627,5.554,5.554,0,0,1,1.575,3.486,10.961,10.961,0,0,1,.029,1.174,6.022,6.022,0,0,1-3.319,5.535,10.836,10.836,0,0,1-3.69,1.2,17.3,17.3,0,0,1-3.824.111,10.548,10.548,0,0,1-5.04-1.484,7.871,7.871,0,0,1-3.1-3.725.476.476,0,0,1-.01-.152,18.148,18.148,0,0,1,3.374-1.816,1.217,1.217,0,0,1,.185.228,5.2,5.2,0,0,0,3.029,2.677,8.775,8.775,0,0,0,6.045.08,3.576,3.576,0,0,0,1.211-.7,2.675,2.675,0,0,0,.911-2.735,2.374,2.374,0,0,0-.976-1.456,5.531,5.531,0,0,0-2.067-.89c-.682-.16-1.381-.25-2.076-.345a20.779,20.779,0,0,1-4.783-1.079,6.205,6.205,0,0,1-3.1-2.4,5.093,5.093,0,0,1-.806-2.5,6.989,6.989,0,0,1,.176-2.484,5.869,5.869,0,0,1,2.809-3.419,10.549,10.549,0,0,1,3.988-1.276,11.533,11.533,0,0,1,2.183-.12,11.931,11.931,0,0,1,5.118,1.234,6.852,6.852,0,0,1,2.872,2.8A3.488,3.488,0,0,1,1623.629,1825.6Z" transform="translate(-780.332 -801.17)" fill="#24c3ff"/><path d="M1917.037,1207.5c.338,1.33.526,2.639.787,3.931.258,1.273.436,2.561.666,3.84.234,1.3.487,2.6.735,3.918a1.177,1.177,0,0,1-.756.1q-6.341.007-12.681,0H1901.4c-.182,0-.366.007-.548-.007a1.4,1.4,0,0,1-1.327-1.216,3.424,3.424,0,0,1-.031-.546q0-4.11,0-8.219a2.237,2.237,0,0,1,.236-1.134,1.169,1.169,0,0,1,.925-.638,5.473,5.473,0,0,1,.625-.028q7.671,0,15.343,0Z" transform="translate(-1044.397 -250.216)" fill="#24c3ff"/><path d="M2404.207,1482.333c.149-.011.327-.037.5-.037q7.831,0,15.662,0a3.515,3.515,0,0,1,.921.121,1.263,1.263,0,0,1,1,1.242c.008.1.005.209.005.313q0,4.15,0,8.3c0,.078,0,.157,0,.235a1.559,1.559,0,0,1-1.541,1.643,3.164,3.164,0,0,1-.469.006q-7.714,0-15.427,0c-.229,0-.458-.016-.717-.026a8.783,8.783,0,0,1-.044-1.356,4.52,4.52,0,0,0-.127-1.472.746.746,0,0,1,.048-.53,4.041,4.041,0,0,0,.248-1.528c-.014-1.853,0-3.707-.006-5.56C2404.257,1483.247,2404.226,1482.809,2404.207,1482.333Z" transform="translate(-1497.298 -496.937)" fill="#24c3ff"/><path d="M2831.177,1827.908a24.327,24.327,0,0,1-2.75,2.647.689.689,0,0,1-.135-.076,7.5,7.5,0,0,0-4.444-1.919,8.176,8.176,0,0,0-4.838.95,6.608,6.608,0,0,0-2.976,3.415,8.514,8.514,0,0,0-.067,6.409,6.381,6.381,0,0,0,4.574,4.121,8.465,8.465,0,0,0,7.111-1.1c.238-.158.453-.351.683-.522.122-.091.252-.171.4-.269l2.777,2.826a1.614,1.614,0,0,1-.185.264,11.492,11.492,0,0,1-6.5,2.981,14.117,14.117,0,0,1-5.808-.422,10.16,10.16,0,0,1-7.4-7.833,12.682,12.682,0,0,1,.451-7.764,10.511,10.511,0,0,1,7.511-6.7,12.83,12.83,0,0,1,5.2-.3,11.452,11.452,0,0,1,6.281,3.1A.865.865,0,0,1,2831.177,1827.908Z" transform="translate(-1862.962 -804.167)" fill="#444"/><path d="M973.733,1828.976c.061-.03.105-.071.15-.072q7.752-.009,15.5-.01a.893.893,0,0,1,.211.05,26.447,26.447,0,0,1,.042,3.923,1.234,1.234,0,0,1-.745.083q-5.05.007-10.1,0h-.807a1.236,1.236,0,0,0-.087.3q-.005,2.78,0,5.559a.708.708,0,0,0,.042.159,1.255,1.255,0,0,0,.749.081q4.737.008,9.475,0h.762a17.434,17.434,0,0,1,.05,3.879,11.522,11.522,0,0,1-1.376.028c-.444.007-.887,0-1.331,0h-6.891l-1.441,0a8.216,8.216,0,0,0-.045,1.355c-.008.47,0,.94,0,1.409v5.438a6.376,6.376,0,0,1-1.421.06c-.443.012-.887,0-1.331,0-.464,0-.929.014-1.385-.015a1.283,1.283,0,0,1-.075-.272q0-10.884,0-21.769A.816.816,0,0,1,973.733,1828.976Z" transform="translate(-213.171 -808.126)" fill="#24c3ff"/><path d="M2165.895,1842.918c0,.717-.009,1.389-.01,2.061s0,1.356,0,2.035v4.015a1.557,1.557,0,0,1-.381.11c-1.2.006-2.4,0-3.6,0a.29.29,0,0,1-.191-.107.147.147,0,0,1-.023-.074q-.009-10.917-.015-21.834a1.153,1.153,0,0,1,.039-.214.745.745,0,0,1,.073-.057.146.146,0,0,1,.069-.028q7.67-.007,15.34-.011c.127,0,.254.01.373.016a19.678,19.678,0,0,1,.058,3.964.314.314,0,0,1-.058.052.243.243,0,0,1-.074.017.7.7,0,0,1-.078.009c-.052,0-.1,0-.157,0h-11.036c-.026,0-.052,0-.078,0a.481.481,0,0,0-.078.007,1.107,1.107,0,0,0-.12.048.981.981,0,0,0-.058.249q0,2.778,0,5.557a1.249,1.249,0,0,0,.046.205c.21.011.437.034.663.034q4.814,0,9.627,0c.254,0,.509.017.8.028.042,1.291.012,2.534.022,3.759a1.175,1.175,0,0,1-.792.116q-4.774.008-9.549,0C2166.455,1842.888,2166.2,1842.906,2165.895,1842.918Z" transform="translate(-1279.786 -808.051)" fill="#444"/><path d="M2281.53,1352.847a8.126,8.126,0,0,0-3.312-1.95c-1.773-.594-3.542-1.2-5.311-1.814a12.5,12.5,0,0,1-2.416-1.079,5.86,5.86,0,0,1-1.57-1.389,31.314,31.314,0,0,1,.239-5.665c.115-.009.263-.031.411-.032q6.179,0,12.357,0a5.207,5.207,0,0,1,.936.047c.681.126,1.206.385,1.288,1.232.025.258.08.515.081.772q.008,3.832,0,7.665a5.889,5.889,0,0,1-.128,1.16,1.253,1.253,0,0,1-1.2,1.043C2282.457,1352.872,2282.014,1352.847,2281.53,1352.847Z" transform="translate(-1376.06 -370.007)" fill="#24c3ff"/><path d="M2298.5,1077.344c.354-2.063.7-4.028.9-6.014.2-1.96.371-3.924.56-5.935.135-.012.284-.037.433-.037,1.98,0,3.961-.009,5.942,0a4.477,4.477,0,0,1,1,.133,1.266,1.266,0,0,1,1,1.158,6.317,6.317,0,0,1,.038.858q0,3.948,0,7.9c0,.078,0,.156,0,.234.028,1.174-.646,1.592-1.6,1.734a2.62,2.62,0,0,1-.391.01q-3.714-.006-7.427-.015C2298.831,1077.37,2298.7,1077.356,2298.5,1077.344Z" transform="translate(-1402.634 -122.598)" fill="#24c3ff"/><path d="M1910.072,1482.328c0,.364,0,.7,0,1.027,0,1.954.013,3.907,0,5.861a4.882,4.882,0,0,0,.316,1.838,15.511,15.511,0,0,0-.173,2.916,2.451,2.451,0,0,1-.422.073c-1.12.007-2.24.012-3.36,0a3.142,3.142,0,0,1-.841-.124,1.3,1.3,0,0,1-.954-1.2c-.009-.077-.007-.156-.008-.234q-.072-4.023-.139-8.046a4.367,4.367,0,0,1,.069-.93,1.431,1.431,0,0,1,1.288-1.182,2.9,2.9,0,0,1,.468-.027q1.719,0,3.438,0C1909.856,1482.3,1909.954,1482.316,1910.072,1482.328Z" transform="translate(-1048.883 -496.938)" fill="#3f4040"/><path d="M785.495,1905.984a3.457,3.457,0,0,1-3.415-3.425,3.453,3.453,0,1,1,6.906.016A3.379,3.379,0,0,1,785.495,1905.984Z" transform="translate(-41.147 -871.139)" fill="#434242"/><path d="M3502.871,1902.524a3.388,3.388,0,0,1,3.527-3.4,3.461,3.461,0,0,1,3.361,3.513,3.526,3.526,0,0,1-3.477,3.407A3.438,3.438,0,0,1,3502.871,1902.524Z" transform="translate(-2483.944 -871.181)" fill="#434242"/><path d="M2084.856,1341.513a42.43,42.43,0,0,1,.2,5.642,6.13,6.13,0,0,1-1.345,1.213c-.02-.2-.042-.311-.042-.425q0-2.266,0-4.531c0-.182,0-.365.019-.546A1.36,1.36,0,0,1,2084.856,1341.513Z" transform="translate(-1209.75 -370.541)" fill="#296aff"/></g></svg>