<svg xmlns="http://www.w3.org/2000/svg" width="333.122" height="258.935" viewBox="0 0 333.122 258.935"><g transform="matrix(-0.545, 0.839, -0.839, -0.545, 511.441, -13.892)"><path d="M271.5,260.5" transform="translate(-5.306 -94.548)" fill="gray" stroke="gray" stroke-miterlimit="10" stroke-width="1"/><path d="M351.192,95.122,347.814,149.9l-81.621.574s-4.937-95.626-6.822-103.608a.427.427,0,0,1,.411-.529h1.627l1.97-.225s7.881-1.728,9.569-1.154c0,0,.394-.062,1.053-.1l4.88,23.428L282.765,44.6c1.717-.1,3.7-.2,5.758-.276l.467-.017,2.4,15.531L293.112,44.2c4.424-.056,8.387.1,9.671.754a28.518,28.518,0,0,0,3.377,1.154s25.331-1.154,30.96.58c0,0,13.51,0,16.887,1.728C354.006,48.418,350.629,93.968,351.192,95.122Z" transform="translate(0 0)" fill="#ccaa58"/><path d="M271.5,228.063a8.149,8.149,0,0,0,5.066,2.252H345.24s5.629,0,7.881-2.815v55.727s0,2.815-5.629,3.94l-68.674-.563s-3.377.563-7.318-2.252" transform="translate(-5.306 -80.124)" fill="gray" stroke="gray" stroke-miterlimit="10" stroke-width="1"/><path d="M353.121,221.5v3.377c-2.252,2.815-7.881,2.815-7.881,2.815H276.566a8.149,8.149,0,0,1-5.066-2.252v-3.377a8.149,8.149,0,0,0,5.066,2.252H345.24S350.869,224.314,353.121,221.5Z" transform="translate(-5.306 -77.501)" fill="#666" stroke="#666" stroke-miterlimit="10" stroke-width="1"/><path d="M353.558,319.5v3.94s.563,2.252-5.066,3.377l-68.674-.563s-3.377.563-7.318-2.252v-3.377c3.94,2.814,7.318,2.252,7.318,2.252l68.674.563C354.121,322.315,353.558,319.5,353.558,319.5Z" transform="translate(-5.744 -120.337)" fill="gray" stroke="gray" stroke-miterlimit="10" stroke-width="1"/><path d="M271.936,327.635a.252.252,0,0,0-.436.174v4.3s0,2.252,4.5,3.377c0,0,10.7,5.629,14.635,12.947s7.318,19.139,6.755,28.145c0,0-1.126,34.337-3.377,45.6,0,0-2.814,11.258,0,43.344,2.776,31.646,9.006,37.715,9.006,37.715s6.192,7.318,14.636,0c0,0,3.94-5.066,7.881-23.079,0,0,3.94-21.953,3.94-29.271s1.126-20.827-1.126-36.026c0,0-2.252-28.145-2.252-33.211,0,0,0-16.324,3.377-25.894,0,0,3.692-12.129,21.795-21.585a3.432,3.432,0,0,0,1.847-3.038v-4.648c0-.265-2.007,2.1-2.2,2.288-.845.826-2.856,2.216-6.811,2.216l-65.3-.563S273.991,329.941,271.936,327.635Z" transform="translate(-5.306 -123.38)" fill="#4d4d4d" stroke="#4d4d4d" stroke-miterlimit="10" stroke-width="1"/><path d="M342,597.414c-.563,5.629-1.646,6.755-5.066,6.755s-6.192,0-6.755-5.629c-.225-2.253-.807-6.217,0-7.881a7.046,7.046,0,0,1,5.91-3.659,7.676,7.676,0,0,1,5.91,3.659C342.914,592.376,342.241,595,342,597.414Z" transform="translate(-30.774 -237.26)" fill="#fff" stroke="#fff" stroke-miterlimit="10" stroke-width="1"/><path d="M354.006,48.418s-.884,11.939-1.677,23.743C349,71.688,345,70.985,340.215,69.977c-25.995-5.471-64.931-2.077-78.767-.591-.811-11.573-1.559-20.338-2.077-22.522a.427.427,0,0,1,.411-.529h1.627l1.97-.225s7.881-1.728,9.569-1.154c0,0,.394-.062,1.053-.1L278.3,59.282,282.765,44.6c1.717-.1,3.7-.2,5.758-.276l.467-.017,1.126,7.655,2.995-7.762c4.424-.056,8.387.1,9.671.754a28.518,28.518,0,0,0,3.377,1.154s25.331-1.154,30.96.58C337.119,46.69,350.629,46.69,354.006,48.418Z" transform="translate(0 0)" fill="#24c3ff"/><path d="M453.76,91.272,453.9,90A1.328,1.328,0,0,1,453.76,91.272Z" transform="translate(-84.972 -20.023)" fill="#24c3ff"/></g></svg>