<svg xmlns="http://www.w3.org/2000/svg" width="291.108" height="211.038" viewBox="0 0 291.108 211.038"><g transform="translate(-255.865 -129.341)"><path d="M378.084,145.5s20.855,10.428,31.9,30.669,10.428,39.87,6.747,48.458c0,0-13.495,19.015-40.484,30.056a31.549,31.549,0,0,0-9.2,4.907s-10.527,20.907-28.879,21.8c0,0-20.863-1.368-32.8-6.678s-21.747-12.057-29.721-24.938-9.844-21.469-10.75-33.123,3.389-23.922,8.3-28.829,11.041-10.428,22.7-11.041,22.082,3.68,24.536,4.294a26.7,26.7,0,0,0,15.335-4.294C343.121,171.876,378.084,145.5,378.084,145.5Z" transform="translate(-3.262 -6.045)" fill="#fc0" stroke="#fc0" stroke-miterlimit="10" stroke-width="1"/><path d="M265.945,268.573a32.372,32.372,0,0,1-7.054-19.322c-.613-25.762-7.115-51.708,3.374-72.687,0,0,33.123-53.365,82.808-46,0,0,12.268-.613,30.056,9.2L332.5,170.738s-4.467,5.026-15.533,4.421a10.168,10.168,0,0,1-2.85-.584c-5.695-2.029-30.157-9.371-44.182,8.43-7.121,9.039-9.253,20.974-7.974,31.9,1.585,13.538,7.9,25.545,10.428,28.829,0,0,14.721,27.6,55.205,31.283,0,0,20.855,5.52,36.19-21.469a26.16,26.16,0,0,1,9.2-4.907s23.309-10.428,39.87-28.829c0,0-2.454,11.041-2.454,12.268s3.067,10.428,3.067,15.335v18.4l-6.134-.613-3.067,2.454L382.8,284.215v9.2l4.907-4.294,9.814,2.454s-9.2,12.881-19.015,12.268a161.886,161.886,0,0,1-20.242-3.68C349.059,297.709,265.945,268.573,265.945,268.573Z" transform="translate(0 0)" fill="#4d4d4d" stroke="#4d4d4d" stroke-miterlimit="10" stroke-width="1"/><path d="M366.349,261.932c0,10.5-2.614,18.411-8.587,25.762-6.992,8.6-21.548,11.285-34.35,9.2C297.036,292.6,272.5,265.7,272.5,242.917S282.8,205.5,306.85,205.5c12.486,0,28.591,6.363,39.87,16.562C357.169,231.51,366.349,250.976,366.349,261.932Z" transform="translate(-6.248 -29.095)" fill="#4d4d4d"/><path d="M439.5,203.221s14.721,17.788,15.335,29.443l1.227-9.814s10.848.719,21.316-15.421a.676.676,0,0,0-.051-.761c-2.607-3-12.92-14.972-14.518-18.168l-12.881,5.521Z" transform="translate(-70.582 -22.588)" fill="#4d4d4d" stroke="#4d4d4d" stroke-miterlimit="10" stroke-width="1"/><path d="M456.081,232.119c-.076-.115-13.322-19.968-16.5-19.638a.036.036,0,0,0-.024.057,87.563,87.563,0,0,1,9.775,14.674c3.43,6.86,4.943,13.975,5.414,15.162a.068.068,0,0,0,.129-.022l1.2-10.229Z" transform="translate(-70.62 -31.834)" fill="#4d4d4d" stroke="#4d4d4d" stroke-miterlimit="10" stroke-width="1"/><path d="M475.136,255.181l2.063,9.354,5.52-4.294-2.08-8.344Z" transform="translate(-84.344 -47.037)" stroke="#000" stroke-miterlimit="10" stroke-width="1"/><path d="M464.5,244.664l.613.307s14.721-4.907,22.082-16.562v-9.63a.033.033,0,0,0-.064-.013,25.924,25.924,0,0,1-21.4,15.777L464.5,244.971" transform="translate(-80.231 -34.252)" fill="#333" stroke="#333" stroke-miterlimit="10" stroke-width="1"/><path d="M467.794,388.727,463.5,387.5v4.294Z" transform="translate(-79.861 -99.318)" stroke="#000" stroke-miterlimit="10" stroke-width="1"/><path d="M505.5,346.5" transform="translate(-96.057 -83.518)" fill="#ffff5c" stroke="#ffff5c" stroke-miterlimit="10" stroke-width="1"/><path d="M463.5,372.819v-3.033a.5.5,0,0,1,.2-.4l24.547-18.725a.5.5,0,0,1,.408-.092L617.493,378a.5.5,0,0,1,.361.676l-3.355,8.387a.5.5,0,0,1-.383.309l-14.348,2.391a.508.508,0,0,1-.19,0l-30.519-6.714a.478.478,0,0,0-.11-.012c-.735.012-8.648.258-10.986,5.52,0,0-1.84,2.454,3.067,4.294s35.577,8.587,38.03,10.428v.613L463.89,373.307A.5.5,0,0,1,463.5,372.819Z" transform="translate(-79.576 -84.951)" fill="#ffe16b" stroke="#ffe16b" stroke-miterlimit="10" stroke-width="1"/><path d="M658.025,419.886l3.68,19.628s.613,2.454,3.067.613,6.134-6.747,6.134-6.747.613-4.294,3.067-4.294H675.2s6.747-4.294,7.361-11.041c0,0,2.453-22.7,2.453-24.536,0,0-1.227-2.454-2.453-1.227,0,0-2.454.613-3.067,12.268l-1.227.613a6.774,6.774,0,0,0-4.294-1.84c-2.454,0-15.335,2.454-15.335,2.454l-30.669-6.747s-7.495.038-9.575,3.393l-2.079,2.741s-1.84,2.454,3.68,3.68l37.513,10.141Z" transform="translate(-138.541 -100.949)" fill="#4d4d4d" stroke="#4d4d4d" stroke-miterlimit="10" stroke-width="1"/><ellipse cx="4.6" cy="2.147" rx="4.6" ry="2.147" transform="translate(517.03 308.51)" fill="gray" stroke="gray" stroke-miterlimit="10" stroke-width="1"/><ellipse cx="4.6" cy="2.147" rx="4.6" ry="2.147" transform="translate(498.628 304.216)" fill="gray" stroke="gray" stroke-miterlimit="10" stroke-width="1"/><ellipse cx="3.987" cy="2.147" rx="3.987" ry="2.147" transform="translate(481.349 299.922)" fill="gray" stroke="gray" stroke-miterlimit="10" stroke-width="1"/></g></svg>