<svg xmlns="http://www.w3.org/2000/svg" width="201" height="203" viewBox="0 0 201 203"><g transform="translate(-219 -1237)"><g transform="translate(219 1237)" fill="rgba(0,0,0,0.03)" stroke="#dedede" stroke-width="3"><rect width="201" height="203" rx="8" stroke="none"/><rect x="1.5" y="1.5" width="198" height="200" rx="6.5" fill="none"/></g><g transform="translate(267 1357)" fill="#fff" stroke="#000" stroke-width="2"><rect width="131" height="44" stroke="none"/><rect x="1" y="1" width="129" height="42" fill="none"/></g><g transform="translate(267 1267)" fill="#fff" stroke="#000" stroke-width="2"><rect width="131" height="20" stroke="none"/><rect x="1" y="1" width="129" height="18" fill="none"/></g><g transform="translate(267 1297)" fill="#fff" stroke="#000" stroke-width="2"><rect width="131" height="20" stroke="none"/><rect x="1" y="1" width="129" height="18" fill="none"/></g><g transform="translate(267 1326)" fill="#fff" stroke="#000" stroke-width="2"><rect width="131" height="21" stroke="none"/><rect x="1" y="1" width="129" height="19" fill="none"/></g><rect width="67" height="16" transform="translate(298 1412)" fill="#ffc134"/><path d="M8.375,9.421A4.711,4.711,0,1,0,3.664,4.711,4.712,4.712,0,0,0,8.375,9.421Zm4.187,1.047h-1.8a5.695,5.695,0,0,1-4.77,0h-1.8A4.187,4.187,0,0,0,0,14.655v.523a1.571,1.571,0,0,0,1.57,1.57H15.179a1.571,1.571,0,0,0,1.57-1.57v-.523A4.187,4.187,0,0,0,12.562,10.468Z" transform="translate(239.328 1267.157)"/><path d="M14.263,5.234a.394.394,0,0,0,.393-.393V3.533a.394.394,0,0,0-.393-.393h-.654V1.57A1.571,1.571,0,0,0,12.038,0H1.57A1.571,1.571,0,0,0,0,1.57V15.179a1.571,1.571,0,0,0,1.57,1.57H12.038a1.571,1.571,0,0,0,1.57-1.57v-1.57h.654a.394.394,0,0,0,.393-.393V11.908a.394.394,0,0,0-.393-.393h-.654V9.421h.654a.394.394,0,0,0,.393-.393V7.72a.394.394,0,0,0-.393-.393h-.654V5.234ZM6.8,4.187A2.094,2.094,0,1,1,4.711,6.281,2.1,2.1,0,0,1,6.8,4.187Zm3.664,7.746a.686.686,0,0,1-.733.628H3.873a.686.686,0,0,1-.733-.628v-.628a2.06,2.06,0,0,1,2.2-1.884H5.5a3.37,3.37,0,0,0,2.6,0H8.27a2.06,2.06,0,0,1,2.2,1.884Z" transform="translate(240.676 1298.747)"/><path d="M13.609,4.187V1.047A1.047,1.047,0,0,0,12.562,0H1.047A1.047,1.047,0,0,0,0,1.047v3.14A1.047,1.047,0,0,0,1.047,5.234H12.562A1.047,1.047,0,0,0,13.609,4.187Zm1.047-2.094V6.281a1.047,1.047,0,0,1-1.047,1.047H8.375A2.093,2.093,0,0,0,6.281,9.421v1.047a1.047,1.047,0,0,0-1.047,1.047V15.7a1.047,1.047,0,0,0,1.047,1.047H8.375A1.047,1.047,0,0,0,9.421,15.7V11.515a1.047,1.047,0,0,0-1.047-1.047V9.421h5.234a3.14,3.14,0,0,0,3.14-3.14V4.187A2.093,2.093,0,0,0,14.655,2.094Z" transform="translate(239.194 1328.329)"/><path d="M18.074,3H4.675A1.673,1.673,0,0,0,3.008,4.675L3,19.749,6.35,16.4H18.074a1.68,1.68,0,0,0,1.675-1.675V4.675A1.68,1.68,0,0,0,18.074,3ZM8.025,13.049H6.35V11.375H8.025Zm0-2.512H6.35V8.862H8.025Zm0-2.512H6.35V6.35H8.025Zm5.862,5.025H9.7V11.375h4.187ZM16.4,10.537H9.7V8.862h6.7Zm0-2.512H9.7V6.35h6.7Z" transform="translate(236.528 1358.928)"/></g></svg>