<svg xmlns="http://www.w3.org/2000/svg" width="930" height="686" viewBox="0 0 930 686"><g transform="translate(-645 -481)"><g transform="translate(739 481)" fill="#cecece" stroke="#888" stroke-width="10"><rect width="186" height="98" stroke="none"/><rect x="5" y="5" width="176" height="88" fill="none"/></g><g transform="translate(925 481)" fill="#cecece" stroke="#888" stroke-width="10"><rect width="186" height="98" stroke="none"/><rect x="5" y="5" width="176" height="88" fill="none"/></g><g transform="translate(1111 481)" fill="#cecece" stroke="#888" stroke-width="10"><rect width="186" height="98" stroke="none"/><rect x="5" y="5" width="176" height="88" fill="none"/></g><g transform="translate(1297 481)" fill="#cecece" stroke="#888" stroke-width="10"><rect width="186" height="98" stroke="none"/><rect x="5" y="5" width="176" height="88" fill="none"/></g><g transform="translate(831 579)" fill="#cecece" stroke="#888" stroke-width="10"><rect width="186" height="98" stroke="none"/><rect x="5" y="5" width="176" height="88" fill="none"/></g><g transform="translate(645 579)" fill="#cecece" stroke="#888" stroke-width="10"><rect width="186" height="98" stroke="none"/><rect x="5" y="5" width="176" height="88" fill="none"/></g><g transform="translate(1017 579)" fill="#cecece" stroke="#888" stroke-width="10"><rect width="186" height="98" stroke="none"/><rect x="5" y="5" width="176" height="88" fill="none"/></g><g transform="translate(1203 579)" fill="#cecece" stroke="#888" stroke-width="10"><rect width="186" height="98" stroke="none"/><rect x="5" y="5" width="176" height="88" fill="none"/></g><g transform="translate(1389 579)" fill="#cecece" stroke="#888" stroke-width="10"><rect width="186" height="98" stroke="none"/><rect x="5" y="5" width="176" height="88" fill="none"/></g><g transform="translate(739 677)" fill="#cecece" stroke="#888" stroke-width="10"><rect width="190" height="100" stroke="none"/><rect x="5" y="5" width="180" height="90" fill="none"/></g><g transform="translate(925 677)" fill="#cecece" stroke="#888" stroke-width="10"><rect width="189" height="98" stroke="none"/><rect x="5" y="5" width="179" height="88" fill="none"/></g><g transform="translate(1111 677)" fill="#cecece" stroke="#888" stroke-width="10"><rect width="186" height="98" stroke="none"/><rect x="5" y="5" width="176" height="88" fill="none"/></g><g transform="translate(1297 677)" fill="#cecece" stroke="#888" stroke-width="10"><rect width="186" height="98" stroke="none"/><rect x="5" y="5" width="176" height="88" fill="none"/></g><g transform="translate(831 775)" fill="#cecece" stroke="#888" stroke-width="10"><rect width="186" height="98" stroke="none"/><rect x="5" y="5" width="176" height="88" fill="none"/></g><g transform="translate(1017 775)" fill="#cecece" stroke="#888" stroke-width="10"><rect width="186" height="98" stroke="none"/><rect x="5" y="5" width="176" height="88" fill="none"/></g><g transform="translate(1203 775)" fill="#cecece" stroke="#888" stroke-width="10"><rect width="186" height="98" stroke="none"/><rect x="5" y="5" width="176" height="88" fill="none"/></g><g transform="translate(1389 775)" fill="#cecece" stroke="#888" stroke-width="10"><rect width="186" height="98" stroke="none"/><rect x="5" y="5" width="176" height="88" fill="none"/></g><g transform="translate(739 873)" fill="#cecece" stroke="#888" stroke-width="10"><rect width="186" height="98" stroke="none"/><rect x="5" y="5" width="176" height="88" fill="none"/></g><g transform="translate(925 873)" fill="#cecece" stroke="#888" stroke-width="10"><rect width="186" height="98" stroke="none"/><rect x="5" y="5" width="176" height="88" fill="none"/></g><g transform="translate(1111 873)" fill="#cecece" stroke="#888" stroke-width="10"><rect width="186" height="98" stroke="none"/><rect x="5" y="5" width="176" height="88" fill="none"/></g><g transform="translate(1297 873)" fill="#cecece" stroke="#888" stroke-width="10"><rect width="186" height="98" stroke="none"/><rect x="5" y="5" width="176" height="88" fill="none"/></g><g transform="translate(831 971)" fill="#cecece" stroke="#888" stroke-width="10"><rect width="186" height="98" stroke="none"/><rect x="5" y="5" width="176" height="88" fill="none"/></g><g transform="translate(929 1069)" fill="#cecece" stroke="#888" stroke-width="10"><rect width="186" height="98" stroke="none"/><rect x="5" y="5" width="176" height="88" fill="none"/></g><g transform="translate(1017 971)" fill="#cecece" stroke="#888" stroke-width="10"><rect width="186" height="98" stroke="none"/><rect x="5" y="5" width="176" height="88" fill="none"/></g><g transform="translate(1115 1069)" fill="#cecece" stroke="#888" stroke-width="10"><rect width="186" height="98" stroke="none"/><rect x="5" y="5" width="176" height="88" fill="none"/></g><g transform="translate(1203 971)" fill="#cecece" stroke="#888" stroke-width="10"><rect width="186" height="98" stroke="none"/><rect x="5" y="5" width="176" height="88" fill="none"/></g><g transform="translate(1301 1069)" fill="#cecece" stroke="#888" stroke-width="10"><rect width="186" height="98" stroke="none"/><rect x="5" y="5" width="176" height="88" fill="none"/></g><g transform="translate(1389 971)" fill="#cecece" stroke="#888" stroke-width="10"><rect width="186" height="98" stroke="none"/><rect x="5" y="5" width="176" height="88" fill="none"/></g></g></svg>